<svg id="Layer_1" data-name="Layer 1" xmlns="http://www.w3.org/2000/svg" viewBox="0 0 348.94 108.51"><defs><style>.cls-1{isolation:isolate;}.cls-2{fill:#010101;}</style></defs><title>Artboard 1</title><g class="cls-1"><path class="cls-2" d="M6.42,75.38H16.6a5.23,5.23,0,0,1,5.47,5.07V93.67a5.23,5.23,0,0,1-5.47,5.07H6.42Zm1.94,1.74V97h8.08a3.62,3.62,0,0,0,3.7-3.64V80.75a3.62,3.62,0,0,0-3.7-3.64Z"/><path class="cls-2" d="M30.11,73.71v3.84H28.27V73.71Zm0,6.81V98.74H28.27V80.52Z"/><path class="cls-2" d="M49.2,100.58a5.23,5.23,0,0,1-5.47,5.07H41.66a5.28,5.28,0,0,1-5.54-4.74v-.27l1.8-.17,0,.27a3.67,3.67,0,0,0,3.74,3.34h1.94a3.68,3.68,0,0,0,3.74-3.67V97a5.55,5.55,0,0,1-4,1.9h-2.3a5.22,5.22,0,0,1-5-5.47V85.76a5.21,5.21,0,0,1,5-5.44h2.24a5.7,5.7,0,0,1,4.24,2.17l.33-2h1.3ZM47.36,95V84.32A4.66,4.66,0,0,0,43.52,82H41.59a3.74,3.74,0,0,0-3.67,3.84v7.68a3.72,3.72,0,0,0,3.64,3.84h1.94A4.85,4.85,0,0,0,47.36,95Z"/><path class="cls-2" d="M57.41,73.71v3.84H55.57V73.71Zm0,6.81V98.74H55.57V80.52Z"/><path class="cls-2" d="M69.58,82.16h-3.8V94a3.52,3.52,0,0,0,3.74,3.34v1.6C66,98.94,63.95,97,63.95,94V82.16h-2.5V80.52h2.5l.53-5.14h1.3v5.14h3.8Z"/><path class="cls-2" d="M75.93,73.71v3.84H74.09V73.71Zm0,6.81V98.74H74.09V80.52Z"/><path class="cls-2" d="M93,93.33c0-3.24-10.68-2-10.68-7.27V84.22c0-2,1.9-3.9,4.71-3.9h2.24c2.77,0,4.91,1.67,4.91,4v1H92.44v-.93c0-1.44-1.54-2.37-3.27-2.37h-2c-1.64,0-3,1.1-3,2.34v1.57c0,3.84,10.61,2.6,10.61,7.38V95c0,2.14-2,4-4.74,4h-3.3c-2.9,0-4.94-1.9-4.94-3.94V94h1.84v1c0,1.27,1.4,2.37,3.27,2.37H90a2.84,2.84,0,0,0,3-2.44Z"/><path class="cls-2" d="M102.52,73.71v3.84h-1.84V73.71Zm0,6.81V98.74h-1.84V80.52Z"/><path class="cls-2" d="M119.64,98.74V85.33A3.35,3.35,0,0,0,116,82h-.67a5.77,5.77,0,0,0-4.6,2.47V98.74h-1.84V80.52h1.33l.33,2.14a7.14,7.14,0,0,1,5-2.34h.83a4.77,4.77,0,0,1,5,5V98.74Z"/><path class="cls-2" d="M140.43,100.58a5.23,5.23,0,0,1-5.47,5.07h-2.07a5.28,5.28,0,0,1-5.54-4.74v-.27l1.8-.17,0,.27a3.67,3.67,0,0,0,3.74,3.34h1.94a3.68,3.68,0,0,0,3.74-3.67V97a5.55,5.55,0,0,1-4,1.9h-2.3a5.22,5.22,0,0,1-5-5.47V85.76a5.21,5.21,0,0,1,5-5.44h2.24a5.7,5.7,0,0,1,4.24,2.17l.33-2h1.3ZM138.59,95V84.32A4.66,4.66,0,0,0,134.76,82h-1.94a3.74,3.74,0,0,0-3.67,3.84v7.68a3.72,3.72,0,0,0,3.64,3.84h1.94A4.85,4.85,0,0,0,138.59,95Z"/><path class="cls-2" d="M168.69,86.13v-.47A3.67,3.67,0,0,0,165,82h-1.77a3.67,3.67,0,0,0-3.67,3.7V93.6a3.67,3.67,0,0,0,3.67,3.7H165a3.67,3.67,0,0,0,3.67-3.7v-.5h1.84v.67a5.18,5.18,0,0,1-5.27,5.17h-2.14a5.22,5.22,0,0,1-5.37-5.17V85.56a5.26,5.26,0,0,1,5.37-5.24h2.14a5.21,5.21,0,0,1,5.27,5.24v.57Z"/><path class="cls-2" d="M181.47,98.94a5.22,5.22,0,0,1-5.37-5.17V85.56a5.26,5.26,0,0,1,5.37-5.24h2.47a5.21,5.21,0,0,1,5.27,5.24v8.21a5.18,5.18,0,0,1-5.27,5.17Zm2.24-1.63a3.67,3.67,0,0,0,3.67-3.7V85.66a3.67,3.67,0,0,0-3.67-3.7h-2.1a3.67,3.67,0,0,0-3.67,3.7V93.6a3.67,3.67,0,0,0,3.67,3.7Z"/><path class="cls-2" d="M205.93,98.74V85.33A3.35,3.35,0,0,0,202.3,82h-.67a5.76,5.76,0,0,0-4.6,2.47V98.74h-1.84V80.52h1.33l.33,2.14a7.14,7.14,0,0,1,5-2.34h.83a4.77,4.77,0,0,1,5,5V98.74Z"/><path class="cls-2" d="M224.72,93.33c0-3.24-10.68-2-10.68-7.27V84.22c0-2,1.9-3.9,4.71-3.9H221c2.77,0,4.91,1.67,4.91,4v1h-1.74v-.93c0-1.44-1.54-2.37-3.27-2.37h-2c-1.63,0-3,1.1-3,2.34v1.57c0,3.84,10.61,2.6,10.61,7.38V95c0,2.14-2,4-4.74,4h-3.3c-2.9,0-4.94-1.9-4.94-3.94V94h1.83v1c0,1.27,1.4,2.37,3.27,2.37h3.07a2.84,2.84,0,0,0,3-2.44Z"/><path class="cls-2" d="M238.2,82.16h-3.8V94a3.52,3.52,0,0,0,3.74,3.34v1.6c-3.5,0-5.57-1.94-5.57-4.94V82.16h-2.5V80.52h2.5l.53-5.14h1.3v5.14h3.8Z"/><path class="cls-2" d="M251.12,82.09h-1.57a6.14,6.14,0,0,0-5,3.64v13h-1.83V80.52H244l.33,3a7,7,0,0,1,5.34-3.1h1.4Z"/><path class="cls-2" d="M256.75,80.52V93.93a3.35,3.35,0,0,0,3.64,3.37H261a5.48,5.48,0,0,0,4.34-2.3V80.52h1.83V98.74h-1.3l-.33-2a6.8,6.8,0,0,1-4.81,2.2H260a4.75,4.75,0,0,1-5-5V80.52Z"/><path class="cls-2" d="M284.12,86.13v-.47a3.67,3.67,0,0,0-3.67-3.7h-1.77a3.67,3.67,0,0,0-3.67,3.7V93.6a3.67,3.67,0,0,0,3.67,3.7h1.77a3.67,3.67,0,0,0,3.67-3.7v-.5H286v.67a5.18,5.18,0,0,1-5.27,5.17h-2.14a5.22,5.22,0,0,1-5.37-5.17V85.56a5.26,5.26,0,0,1,5.37-5.24h2.14A5.21,5.21,0,0,1,286,85.56v.57Z"/><path class="cls-2" d="M297.73,82.16h-3.8V94a3.52,3.52,0,0,0,3.74,3.34v1.6c-3.5,0-5.57-1.94-5.57-4.94V82.16h-2.5V80.52h2.5l.53-5.14h1.3v5.14h3.8Z"/><path class="cls-2" d="M304.07,73.71v3.84h-1.83V73.71Zm0,6.81V98.74h-1.83V80.52Z"/><path class="cls-2" d="M315.42,98.94A5.22,5.22,0,0,1,310,93.77V85.56a5.26,5.26,0,0,1,5.37-5.24h2.47a5.21,5.21,0,0,1,5.27,5.24v8.21a5.18,5.18,0,0,1-5.27,5.17Zm2.24-1.63a3.67,3.67,0,0,0,3.67-3.7V85.66a3.67,3.67,0,0,0-3.67-3.7h-2.1a3.67,3.67,0,0,0-3.67,3.7V93.6a3.67,3.67,0,0,0,3.67,3.7Z"/><path class="cls-2" d="M339.88,98.74V85.33A3.35,3.35,0,0,0,336.24,82h-.67A5.77,5.77,0,0,0,331,84.42V98.74h-1.83V80.52h1.33l.33,2.14a7.14,7.14,0,0,1,5-2.34h.83a4.76,4.76,0,0,1,5,5V98.74Z"/></g><path class="cls-2" d="M346.45,60.29H2.33V2.79H346.45Zm-342.12-2H344.45V4.79H4.33Z"/><g class="cls-1"><g class="cls-1"><path class="cls-2" d="M38.74,37.59v.9c0,1.56,1.29,2.34,2.85,2.34h3c1.6,0,2.85-.7,2.85-2.3v-.66c0-2.65-13.57-3.43-13.57-11.16v-2.5c0-3.12,2.65-6,7.37-6h3.35c5,0,7.8,3,7.8,6.12v3.35H46.62V25.58c0-1.56-1.21-2.3-2.73-2.3H42.21c-1.48,0-2.65.7-2.65,2.22v.7c0,3.08,13.57,3.94,13.57,10.69v2.89c0,3.28-2.89,6.16-7.88,6.16h-4c-5.23,0-8.23-3-8.23-6.2V37.59Z"/><path class="cls-2" d="M67.91,32.25V31.15a2.19,2.19,0,0,0-2.34-2.34h-.94a2.19,2.19,0,0,0-2.34,2.34v7.49A2.17,2.17,0,0,0,64.63,41h.94a2.17,2.17,0,0,0,2.34-2.34v-1h5.58v2c0,3.31-2.61,6.36-7.22,6.36h-2c-4.8,0-7.57-3-7.57-6.36V30.29c0-3.35,2.77-6.4,7.57-6.4h2c4.6,0,7.22,3,7.22,6.4v2Z"/><path class="cls-2" d="M94.12,30.76V45.7H90.33l-.58-1.79a7.68,7.68,0,0,1-4.91,2H83c-3.9,0-6-2.65-6-5.5V38.76c0-3.63,3.67-5.42,7.37-5.85l4.21-.47V31.15a2.1,2.1,0,0,0-2.11-2.34H85.38a1.94,1.94,0,0,0-2,2.11v.27H77.81v-.55c0-3.55,2.65-6.75,7.25-6.75h1.87A6.76,6.76,0,0,1,94.12,30.76Zm-5.54,9V36.5L85.15,37c-1.4.2-2.61.94-2.61,2v.66A1.43,1.43,0,0,0,84.09,41h1A5.29,5.29,0,0,0,88.58,39.77Z"/><path class="cls-2" d="M104.3,16.45V45.7H98.72V16.45Z"/><path class="cls-2" d="M114,36.77v1.87A2.17,2.17,0,0,0,116.35,41h1.33A2.11,2.11,0,0,0,120,38.8v-.12h5.58v1.05c0,3.2-2.61,6.2-7.22,6.2H116c-4.8,0-7.57-3-7.57-6.36V30.29c0-3.35,2.77-6.4,7.57-6.4h2.38c4.6,0,7.22,3,7.22,6.4v6.47Zm0-4.21h6v-1.4a2.19,2.19,0,0,0-2.34-2.34h-1.33A2.19,2.19,0,0,0,114,31.15Z"/><path class="cls-2" d="M142.63,45.7,142,44a7.06,7.06,0,0,1-4.72,2H135.1c-3.78,0-5.85-3.16-5.85-6.55v-9c0-3.39,2.07-6.51,5.85-6.51H137A7.65,7.65,0,0,1,140.84,25V16.45h5.58V45.7Zm-1.79-5.85V29.94a3.57,3.57,0,0,0-2.57-1.13h-1.21a2.17,2.17,0,0,0-2.22,2.38v7.45A2.08,2.08,0,0,0,137,41h1.13A4.16,4.16,0,0,0,140.84,39.85Z"/></g><g class="cls-1"><path class="cls-2" d="M166,45.7V18.4h10.53c4,0,6.83,2.42,6.83,5.5v5.62c0,2.38-2.18,4.84-5.3,5.3l5.38,10.88H181l-5.38-10.8h-7.37V45.7Zm2.26-25.27V32.91h8.54c2.38,0,4.33-1.79,4.33-3.74V24.25c0-2.3-2.11-3.82-4.8-3.82Z"/><path class="cls-2" d="M196.49,45.93a6.1,6.1,0,0,1-6.28-6V30.29a6.14,6.14,0,0,1,6.28-6.12h2.89a6.09,6.09,0,0,1,6.16,6.12v9.59a6.05,6.05,0,0,1-6.16,6ZM199.11,44a4.29,4.29,0,0,0,4.29-4.33V30.41a4.29,4.29,0,0,0-4.29-4.33h-2.46a4.29,4.29,0,0,0-4.29,4.33v9.28A4.29,4.29,0,0,0,196.65,44Z"/><path class="cls-2" d="M212.52,45.7V16.45h2.15v10a6.54,6.54,0,0,1,4.76-2.3H222c3.39,0,5.85,2.93,5.85,6.36v9c0,3.47-2.46,6.4-5.85,6.4h-2.69a6.47,6.47,0,0,1-4.87-2.5l-.35,2.26Zm2.15-16.89V41.14A5.53,5.53,0,0,0,219.23,44h2.22a4.34,4.34,0,0,0,4.25-4.49v-9a4.37,4.37,0,0,0-4.25-4.49h-2.26A5.65,5.65,0,0,0,214.67,28.81Z"/><path class="cls-2" d="M240.64,45.93a6.11,6.11,0,0,1-6.28-6V30.29a6.15,6.15,0,0,1,6.28-6.12h2.89a6.09,6.09,0,0,1,6.16,6.12v9.59a6.05,6.05,0,0,1-6.16,6ZM243.26,44a4.29,4.29,0,0,0,4.29-4.33V30.41a4.29,4.29,0,0,0-4.29-4.33H240.8a4.29,4.29,0,0,0-4.29,4.33v9.28A4.29,4.29,0,0,0,240.8,44Z"/><path class="cls-2" d="M263.46,26.32H259V40.16a4.11,4.11,0,0,0,4.37,3.9v1.87c-4.1,0-6.51-2.26-6.51-5.77V26.32h-2.92V24.41h2.92l.62-6H259v6h4.45Z"/><path class="cls-2" d="M270.87,16.45v4.49h-2.14V16.45Zm0,8V45.7h-2.14V24.41Z"/><path class="cls-2" d="M290.64,31v-.55a4.29,4.29,0,0,0-4.29-4.33h-2.07A4.29,4.29,0,0,0,280,30.41v9.28A4.29,4.29,0,0,0,284.28,44h2.07a4.29,4.29,0,0,0,4.29-4.33v-.58h2.15v.78a6.05,6.05,0,0,1-6.16,6h-2.5a6.1,6.1,0,0,1-6.28-6V30.29a6.14,6.14,0,0,1,6.28-6.12h2.5a6.09,6.09,0,0,1,6.16,6.12V31Z"/><path class="cls-2" d="M312.28,39.38c0-3.78-12.48-2.38-12.48-8.5V28.73c0-2.38,2.22-4.56,5.5-4.56h2.61c3.24,0,5.73,2,5.73,4.64v1.13h-2V28.85c0-1.68-1.79-2.77-3.82-2.77h-2.3c-1.91,0-3.51,1.29-3.51,2.73v1.83c0,4.49,12.4,3,12.4,8.62v2c0,2.5-2.38,4.64-5.54,4.64H305c-3.39,0-5.77-2.22-5.77-4.6V40.12h2.15v1.13c0,1.48,1.64,2.77,3.82,2.77h3.59c1.91,0,3.51-1.37,3.51-2.85Z"/></g></g></svg>